<svg xmlns="http://www.w3.org/2000/svg" xmlns:xlink="http://www.w3.org/1999/xlink" width="500" zoomAndPan="magnify" viewBox="0 0 375 374.999991" height="500" preserveAspectRatio="xMidYMid meet" version="1.0"><defs><g/><clipPath id="61f106cfc8"><path d="M 7.707031 52.484375 L 366.957031 52.484375 L 366.957031 271.484375 L 7.707031 271.484375 Z M 7.707031 52.484375 " clip-rule="nonzero"/></clipPath></defs><path fill="#3b4651" d="M 106.96875 161.703125 C 111.480469 161.703125 114.863281 157.1875 114.863281 151.546875 C 114.863281 147.597656 110.914062 144.210938 108.660156 142.519531 C 108.660156 133.492188 108.660156 127.289062 108.660156 118.261719 C 114.296875 119.386719 128.960938 122.773438 134.039062 123.902344 C 134.039062 128.980469 134.039062 120.515625 134.039062 147.035156 C 161.109375 169.601562 219.199219 169.035156 245.703125 147.035156 C 245.703125 121.082031 245.703125 130.109375 245.703125 123.902344 C 248.523438 123.339844 271.648438 118.261719 275.03125 117.695312 C 217.503906 105.285156 256.984375 113.746094 189.871094 99.640625 C 185.359375 100.769531 167.3125 104.71875 104.710938 117.695312 L 105.273438 117.695312 C 105.273438 126.160156 105.273438 132.929688 105.273438 142.519531 C 103.019531 144.210938 99.070312 147.597656 99.070312 151.546875 C 99.070312 157.1875 103.019531 161.703125 106.96875 161.703125 Z M 142.496094 119.386719 C 166.183594 136.3125 214.6875 135.75 237.808594 119.386719 L 237.808594 130.671875 C 215.25 148.160156 167.875 150.417969 142.496094 130.671875 Z M 142.496094 119.386719 " fill-opacity="1" fill-rule="nonzero"/><g clip-path="url(#61f106cfc8)"><path fill="#2b7abf" d="M 308.304688 208.53125 L 308.304688 66.917969 C 308.304688 59.019531 302.101562 52.816406 294.207031 52.816406 L 75.382812 52.816406 C 67.488281 52.816406 61.285156 59.019531 61.285156 66.917969 L 61.285156 208.53125 L 7.707031 262.128906 C 7.707031 267.207031 11.65625 271.71875 17.296875 271.71875 L 357.371094 271.71875 C 362.445312 271.71875 366.957031 267.769531 366.957031 262.128906 Z M 70.308594 62.40625 L 298.71875 62.40625 L 298.71875 200.066406 L 70.308594 200.066406 Z M 60.15625 267.207031 L 51.699219 267.207031 C 49.441406 267.207031 47.1875 264.949219 47.1875 262.691406 C 47.1875 260.433594 49.441406 258.179688 51.699219 258.179688 L 60.15625 258.179688 C 62.414062 258.179688 64.667969 260.433594 64.667969 262.691406 C 64.667969 264.949219 62.414062 267.207031 60.15625 267.207031 Z M 82.152344 267.207031 L 73.691406 267.207031 C 71.4375 267.207031 69.179688 264.949219 69.179688 262.691406 C 69.179688 260.433594 71.4375 258.179688 73.691406 258.179688 L 82.152344 258.179688 C 84.410156 258.179688 86.664062 260.433594 86.664062 262.691406 C 86.664062 265.511719 84.410156 267.207031 82.152344 267.207031 Z M 197.765625 267.207031 L 189.308594 267.207031 C 187.050781 267.207031 184.796875 264.949219 184.796875 262.691406 C 184.796875 260.433594 187.050781 258.179688 189.308594 258.179688 L 197.765625 258.179688 C 200.023438 258.179688 202.277344 260.433594 202.277344 262.691406 C 202.277344 265.511719 200.023438 267.207031 197.765625 267.207031 Z M 30.832031 252.535156 L 67.488281 215.863281 L 301.539062 215.863281 L 341.578125 252.535156 Z M 30.832031 252.535156 " fill-opacity="1" fill-rule="nonzero"/></g><path fill="#2b7abf" d="M 70.871094 221.507812 L 45.496094 246.894531 L 328.609375 246.894531 L 300.972656 221.507812 Z M 70.871094 221.507812 " fill-opacity="1" fill-rule="nonzero"/><g fill="#000000" fill-opacity="1"><g transform="translate(7.954928, 337.383919)"><g><path d="M 15.972656 -39.066406 C 16.378906 -39.414062 16.785156 -39.644531 17.1875 -39.992188 C 17.59375 -40.28125 17.941406 -40.6875 18.289062 -40.976562 C 18.695312 -41.324219 19.097656 -41.671875 19.445312 -42.015625 C 19.851562 -42.363281 20.257812 -42.710938 20.546875 -43.058594 C 20.949219 -43.40625 21.355469 -43.8125 21.644531 -44.101562 C 21.992188 -44.507812 22.339844 -44.910156 22.628906 -45.257812 C 23.09375 -45.722656 23.441406 -46.183594 23.554688 -46.472656 C 23.730469 -46.9375 23.441406 -47.167969 22.511719 -47.167969 C 21.875 -47.167969 21.355469 -47.285156 20.777344 -47.285156 C 20.199219 -47.285156 19.621094 -47.285156 19.097656 -47.285156 C 18.519531 -47.226562 18 -47.050781 17.535156 -46.820312 C 17.015625 -46.589844 16.667969 -46.242188 16.378906 -45.664062 C 16.148438 -45.199219 15.859375 -44.796875 15.683594 -44.273438 C 15.511719 -43.871094 15.394531 -43.40625 15.164062 -42.769531 C 15.046875 -42.363281 14.875 -41.84375 14.757812 -41.265625 C 14.585938 -40.800781 14.410156 -40.339844 14.238281 -39.703125 C 14.121094 -39.183594 15.164062 -38.546875 15.972656 -39.066406 Z M 30.847656 -36 C 30.675781 -36.347656 30.152344 -36.519531 29.285156 -36.636719 C 28.820312 -36.691406 28.242188 -36.578125 27.546875 -36.578125 C 26.910156 -36.578125 26.390625 -36.808594 25.984375 -36.808594 C 25.292969 -36.808594 24.886719 -36.578125 24.480469 -36.289062 C 24.191406 -36 23.902344 -35.59375 23.441406 -35.074219 C 23.207031 -34.667969 22.746094 -34.378906 22.398438 -33.855469 C 22.109375 -33.453125 21.875 -33.046875 21.585938 -32.582031 C 21.355469 -32.179688 21.183594 -31.714844 20.894531 -31.3125 C 20.660156 -30.847656 20.429688 -30.441406 20.199219 -29.980469 C 19.96875 -29.574219 19.621094 -29.167969 19.386719 -28.765625 C 19.15625 -28.300781 18.867188 -27.894531 18.636719 -27.492188 C 18.347656 -27.085938 18.230469 -26.566406 17.941406 -26.160156 C 17.652344 -25.753906 17.363281 -25.347656 17.074219 -25.003906 C 16.785156 -24.597656 16.378906 -24.480469 15.972656 -24.480469 C 15.511719 -24.539062 15.105469 -24.65625 14.875 -25.058594 C 14.585938 -25.464844 14.351562 -25.984375 14.121094 -26.390625 C 13.890625 -26.910156 13.714844 -27.433594 13.484375 -27.839844 C 13.136719 -28.417969 12.734375 -28.765625 12.5 -29.054688 C 12.152344 -29.402344 11.804688 -29.804688 11.515625 -30.210938 C 11.171875 -30.558594 10.996094 -31.078125 10.765625 -31.484375 C 10.476562 -31.945312 10.1875 -32.351562 10.011719 -32.816406 C 9.78125 -33.394531 9.550781 -33.800781 9.375 -34.203125 C 9.144531 -34.78125 8.914062 -35.1875 8.679688 -35.535156 C 8.277344 -36 7.929688 -36.289062 7.464844 -36.460938 C 7.0625 -36.636719 6.539062 -36.578125 5.960938 -36.578125 C 5.5 -36.578125 5.035156 -36.691406 4.457031 -36.691406 C 3.933594 -36.691406 3.414062 -36.636719 2.953125 -36.636719 C 2.316406 -36.636719 1.734375 -36.578125 1.445312 -36.347656 C 1.101562 -36.113281 0.984375 -35.652344 1.15625 -34.898438 C 1.273438 -34.550781 1.679688 -34.089844 2.082031 -33.453125 C 2.316406 -32.988281 2.664062 -32.46875 3.007812 -32.003906 C 3.300781 -31.484375 3.644531 -30.964844 3.933594 -30.5 C 4.339844 -29.921875 4.804688 -29.457031 4.976562 -29.167969 C 5.265625 -28.820312 5.441406 -28.359375 5.730469 -27.894531 C 6.019531 -27.492188 6.308594 -27.085938 6.597656 -26.679688 C 6.828125 -26.277344 7.0625 -25.8125 7.351562 -25.40625 C 7.582031 -25.003906 7.871094 -24.597656 8.160156 -24.132812 C 8.449219 -23.730469 8.679688 -23.324219 8.96875 -22.917969 C 9.261719 -22.511719 9.550781 -22.109375 9.839844 -21.703125 C 10.128906 -21.296875 10.300781 -20.835938 10.589844 -20.429688 C 10.824219 -20.082031 11.226562 -19.792969 11.460938 -19.332031 C 11.632812 -18.925781 11.804688 -18.460938 11.980469 -18.058594 C 12.210938 -17.59375 12.386719 -17.074219 12.386719 -16.726562 C 12.386719 -16.03125 12.269531 -15.570312 12.269531 -15.164062 C 12.328125 -14.585938 12.386719 -14.179688 12.328125 -13.542969 C 12.328125 -13.136719 12.328125 -12.617188 12.328125 -11.921875 C 12.269531 -11.402344 12.152344 -10.878906 12.152344 -10.242188 C 12.097656 -9.722656 12.152344 -9.144531 12.097656 -8.566406 C 12.097656 -8.042969 12.039062 -7.464844 11.980469 -6.886719 C 11.980469 -6.308594 11.863281 -5.789062 11.804688 -5.207031 C 11.804688 -4.628906 11.863281 -4.109375 11.863281 -3.53125 C 11.863281 -2.953125 11.921875 -2.371094 11.980469 -1.851562 C 11.980469 -1.273438 12.097656 -0.867188 12.386719 -0.578125 C 12.675781 -0.289062 13.136719 -0.117188 13.660156 0 C 14.0625 0.0585938 14.585938 0 15.105469 0 C 15.625 0 16.207031 -0.117188 16.785156 -0.171875 C 17.363281 -0.289062 17.941406 -0.347656 18.347656 -0.636719 C 18.867188 -0.925781 19.214844 -1.332031 19.214844 -2.027344 C 19.15625 -2.546875 19.097656 -3.007812 19.097656 -3.472656 C 19.042969 -3.878906 19.042969 -4.339844 19.042969 -4.917969 C 19.042969 -5.324219 18.925781 -5.789062 18.925781 -6.367188 C 18.984375 -6.769531 19.042969 -7.292969 19.097656 -7.8125 C 19.097656 -8.277344 19.042969 -8.738281 19.042969 -9.316406 C 19.097656 -9.78125 19.15625 -10.417969 19.15625 -11.054688 C 19.097656 -11.574219 19.042969 -12.210938 18.984375 -12.789062 C 18.925781 -13.371094 18.867188 -14.003906 18.808594 -14.527344 C 18.75 -15.222656 18.75 -15.800781 18.75 -16.261719 C 18.75 -16.726562 18.867188 -17.304688 19.097656 -17.882812 C 19.332031 -18.347656 19.503906 -18.925781 19.792969 -19.445312 C 20.082031 -19.910156 20.371094 -20.429688 20.71875 -20.949219 C 21.066406 -21.355469 21.414062 -21.820312 21.820312 -22.28125 C 22.167969 -22.746094 22.570312 -23.148438 22.917969 -23.613281 C 23.148438 -23.84375 23.441406 -24.308594 23.902344 -24.945312 C 24.191406 -25.347656 24.480469 -25.753906 24.828125 -26.277344 C 25.175781 -26.679688 25.347656 -27.203125 25.695312 -27.664062 C 25.984375 -28.128906 26.390625 -28.53125 26.738281 -28.9375 C 27.027344 -29.402344 27.375 -29.863281 27.664062 -30.328125 C 28.011719 -30.789062 28.300781 -31.253906 28.589844 -31.65625 C 28.9375 -32.179688 29.113281 -32.699219 29.402344 -33.105469 C 29.804688 -33.742188 30.09375 -34.203125 30.269531 -34.4375 C 30.789062 -35.246094 31.019531 -35.652344 30.847656 -36 Z M 30.847656 -36 "/></g></g></g><g fill="#000000" fill-opacity="1"><g transform="translate(39.955975, 337.383919)"><g><path d="M 30.964844 -20.894531 C 30.964844 -21.355469 30.730469 -21.820312 30.730469 -22.28125 C 30.675781 -22.804688 30.617188 -23.265625 30.558594 -23.730469 C 30.5 -24.191406 30.558594 -24.710938 30.441406 -25.175781 C 30.269531 -25.695312 29.980469 -26.160156 29.863281 -26.738281 C 29.691406 -27.257812 29.574219 -27.78125 29.402344 -28.300781 C 29.226562 -28.820312 29.113281 -29.402344 28.878906 -29.863281 C 28.707031 -30.382812 28.53125 -30.90625 28.242188 -31.425781 C 28.011719 -31.890625 27.722656 -32.410156 27.375 -32.816406 C 27.085938 -33.277344 26.738281 -33.742188 26.332031 -34.148438 C 25.929688 -34.492188 25.40625 -34.726562 24.945312 -35.074219 C 24.480469 -35.363281 24.019531 -35.652344 23.496094 -35.882812 C 23.035156 -36.113281 22.457031 -36.230469 21.933594 -36.402344 C 21.414062 -36.519531 20.894531 -36.691406 20.3125 -36.808594 C 19.792969 -36.925781 19.273438 -36.980469 18.695312 -36.980469 C 18.171875 -37.039062 17.59375 -37.039062 17.074219 -37.039062 C 16.496094 -37.039062 15.972656 -37.039062 15.394531 -36.925781 C 14.875 -36.867188 14.351562 -36.75 13.773438 -36.636719 C 13.253906 -36.519531 12.675781 -36.519531 12.152344 -36.347656 C 11.632812 -36.113281 11.171875 -35.824219 10.707031 -35.535156 C 10.1875 -35.304688 9.78125 -35.015625 9.316406 -34.667969 C 8.855469 -34.378906 8.277344 -34.203125 7.871094 -33.800781 C 7.464844 -33.453125 7.175781 -32.988281 6.769531 -32.527344 C 6.480469 -32.121094 6.136719 -31.65625 5.84375 -31.195312 C 5.554688 -30.730469 5.382812 -30.152344 5.207031 -29.632812 C 4.976562 -29.167969 4.804688 -28.648438 4.628906 -28.070312 C 4.515625 -27.546875 4.28125 -27.027344 4.167969 -26.507812 C 4.050781 -25.929688 3.820312 -25.40625 3.703125 -24.886719 C 3.589844 -24.308594 3.644531 -23.730469 3.589844 -23.207031 C 3.53125 -22.628906 3.472656 -22.109375 3.414062 -21.53125 C 3.355469 -21.007812 3.242188 -20.429688 3.242188 -19.910156 C 3.183594 -19.332031 3.183594 -18.808594 3.242188 -18.230469 C 3.242188 -17.652344 3.300781 -17.132812 3.355469 -16.550781 C 3.355469 -16.03125 3.355469 -15.453125 3.414062 -14.875 C 3.472656 -14.351562 3.589844 -13.832031 3.703125 -13.253906 C 3.820312 -12.734375 3.761719 -12.152344 3.933594 -11.574219 C 4.050781 -11.113281 4.339844 -10.648438 4.457031 -10.128906 C 4.628906 -9.605469 4.746094 -9.085938 4.917969 -8.625 C 5.09375 -8.101562 5.324219 -7.640625 5.554688 -7.175781 C 5.789062 -6.714844 6.019531 -6.25 6.25 -5.789062 C 6.539062 -5.324219 6.886719 -4.917969 7.175781 -4.457031 C 7.523438 -3.992188 7.8125 -3.589844 8.21875 -3.183594 C 8.625 -2.777344 9.027344 -2.371094 9.433594 -2.027344 C 9.839844 -1.679688 10.359375 -1.390625 10.824219 -1.101562 C 11.285156 -0.808594 11.804688 -0.519531 12.269531 -0.289062 C 12.789062 -0.0585938 13.371094 0.0585938 13.890625 0.171875 C 14.410156 0.347656 14.988281 0.40625 15.511719 0.519531 C 16.089844 0.578125 16.609375 0.578125 17.1875 0.578125 C 17.710938 0.578125 18.289062 0.578125 18.808594 0.464844 C 19.386719 0.40625 19.910156 0.289062 20.429688 0.117188 C 20.949219 -0.0585938 21.472656 -0.230469 21.992188 -0.464844 C 22.511719 -0.695312 22.976562 -0.984375 23.441406 -1.273438 C 23.902344 -1.621094 24.367188 -1.851562 24.828125 -2.257812 C 25.234375 -2.605469 25.695312 -2.894531 26.101562 -3.300781 C 26.449219 -3.703125 26.738281 -4.226562 27.027344 -4.6875 C 27.316406 -5.152344 27.605469 -5.554688 27.894531 -6.019531 C 28.128906 -6.425781 28.417969 -6.886719 28.648438 -7.351562 C 28.878906 -7.8125 29.054688 -8.277344 29.285156 -8.796875 C 29.457031 -9.261719 29.574219 -9.78125 29.746094 -10.242188 C 29.921875 -10.765625 30.152344 -11.226562 30.269531 -11.691406 C 30.382812 -12.210938 30.558594 -12.734375 30.675781 -13.253906 C 30.730469 -13.714844 30.789062 -14.238281 30.847656 -14.757812 C 30.90625 -15.277344 30.964844 -15.800781 31.019531 -16.320312 C 31.019531 -16.839844 31.019531 -17.363281 31.019531 -17.882812 C 31.019531 -18.40625 31.019531 -18.925781 31.019531 -19.445312 C 30.964844 -19.910156 31.019531 -20.371094 30.964844 -20.894531 Z M 9.261719 -19.5625 C 9.316406 -20.082031 9.261719 -20.546875 9.316406 -21.066406 C 9.375 -21.53125 9.375 -22.050781 9.433594 -22.511719 C 9.492188 -23.035156 9.605469 -23.496094 9.722656 -23.960938 C 9.78125 -24.480469 9.953125 -24.945312 10.070312 -25.40625 C 10.1875 -25.929688 10.242188 -26.507812 10.476562 -26.96875 C 10.765625 -27.433594 11.054688 -27.894531 11.34375 -28.300781 C 11.691406 -28.765625 12.152344 -29.113281 12.558594 -29.457031 C 12.964844 -29.746094 13.425781 -30.09375 13.890625 -30.328125 C 14.351562 -30.558594 14.875 -30.847656 15.394531 -30.964844 C 15.914062 -31.136719 16.496094 -31.136719 17.015625 -31.136719 C 17.535156 -31.136719 18.058594 -31.136719 18.578125 -30.964844 C 19.042969 -30.847656 19.503906 -30.558594 19.96875 -30.269531 C 20.429688 -30.039062 20.894531 -29.863281 21.296875 -29.515625 C 21.703125 -29.167969 21.992188 -28.707031 22.339844 -28.300781 C 22.628906 -27.894531 22.917969 -27.492188 23.207031 -26.96875 C 23.441406 -26.566406 23.613281 -26.042969 23.785156 -25.523438 C 23.960938 -25.003906 24.132812 -24.480469 24.25 -23.960938 C 24.367188 -23.441406 24.480469 -22.917969 24.597656 -22.398438 C 24.65625 -21.820312 24.710938 -21.296875 24.769531 -20.777344 C 24.828125 -20.199219 24.945312 -19.675781 25.003906 -19.15625 C 25.003906 -18.578125 24.945312 -18.058594 24.945312 -17.535156 C 24.945312 -16.957031 24.945312 -16.4375 24.886719 -15.859375 C 24.828125 -15.335938 24.710938 -14.816406 24.597656 -14.238281 C 24.480469 -13.714844 24.367188 -13.195312 24.25 -12.675781 C 24.078125 -12.152344 23.902344 -11.632812 23.671875 -11.113281 C 23.496094 -10.589844 23.265625 -10.128906 23.035156 -9.722656 C 22.804688 -9.261719 22.511719 -8.796875 22.222656 -8.449219 C 21.875 -8.042969 21.53125 -7.640625 21.125 -7.351562 C 20.71875 -7.003906 20.257812 -6.828125 19.792969 -6.597656 C 19.332031 -6.367188 18.808594 -6.367188 18.289062 -6.308594 C 17.824219 -6.191406 17.304688 -6.078125 16.785156 -6.136719 C 16.261719 -6.191406 15.742188 -6.25 15.277344 -6.425781 C 14.757812 -6.539062 14.238281 -6.769531 13.832031 -7.003906 C 13.371094 -7.234375 12.964844 -7.582031 12.617188 -7.929688 C 12.210938 -8.277344 11.863281 -8.679688 11.574219 -9.144531 C 11.285156 -9.550781 11.113281 -10.070312 10.9375 -10.535156 C 10.707031 -10.996094 10.589844 -11.515625 10.417969 -12.039062 C 10.242188 -12.5 10.070312 -13.023438 9.953125 -13.484375 C 9.839844 -14.003906 9.78125 -14.527344 9.664062 -15.046875 C 9.605469 -15.570312 9.433594 -16.089844 9.375 -16.550781 C 9.261719 -17.074219 9.203125 -17.59375 9.085938 -18.113281 C 9.144531 -18.578125 9.203125 -19.097656 9.261719 -19.5625 Z M 9.261719 -19.5625 "/></g></g></g><g fill="#000000" fill-opacity="1"><g transform="translate(74.271755, 337.383919)"><g><path d="M 10.765625 -25.117188 C 10.765625 -25.640625 10.878906 -26.160156 10.824219 -26.738281 C 10.824219 -27.316406 10.707031 -27.839844 10.707031 -28.359375 C 10.707031 -28.9375 10.765625 -29.515625 10.765625 -29.980469 C 10.765625 -30.382812 10.589844 -30.90625 10.535156 -31.484375 C 10.535156 -31.945312 10.476562 -32.46875 10.476562 -32.988281 C 10.417969 -33.566406 10.535156 -34.089844 10.535156 -34.492188 C 10.476562 -35.128906 10.300781 -35.535156 10.070312 -35.882812 C 9.839844 -36.289062 9.433594 -36.402344 8.855469 -36.460938 C 8.449219 -36.519531 7.988281 -36.578125 7.40625 -36.519531 C 6.828125 -36.519531 6.367188 -36.519531 5.960938 -36.460938 C 5.382812 -36.347656 5.035156 -36.054688 4.804688 -35.652344 C 4.628906 -35.304688 4.398438 -34.898438 4.457031 -34.261719 C 4.457031 -33.914062 4.515625 -33.335938 4.515625 -32.757812 C 4.515625 -32.179688 4.457031 -31.601562 4.457031 -31.253906 C 4.457031 -30.730469 4.457031 -30.210938 4.457031 -29.691406 C 4.457031 -29.167969 4.570312 -28.648438 4.570312 -28.128906 C 4.570312 -27.605469 4.570312 -27.085938 4.570312 -26.566406 C 4.570312 -25.984375 4.515625 -25.464844 4.515625 -24.945312 C 4.515625 -24.421875 4.628906 -23.902344 4.628906 -23.382812 C 4.628906 -22.859375 4.570312 -22.339844 4.570312 -21.820312 C 4.570312 -21.296875 4.570312 -20.71875 4.570312 -20.199219 C 4.570312 -19.675781 4.515625 -19.15625 4.515625 -18.636719 C 4.515625 -18.113281 4.515625 -17.59375 4.515625 -17.074219 C 4.515625 -16.550781 4.515625 -16.03125 4.515625 -15.511719 C 4.515625 -14.933594 4.570312 -14.410156 4.570312 -13.890625 C 4.570312 -13.371094 4.457031 -12.847656 4.515625 -12.328125 C 4.515625 -11.804688 4.6875 -11.285156 4.6875 -10.765625 C 4.6875 -10.242188 4.628906 -9.722656 4.628906 -9.144531 C 4.628906 -8.625 4.6875 -8.101562 4.6875 -7.582031 C 4.6875 -7.0625 4.570312 -6.539062 4.570312 -5.902344 C 4.570312 -5.382812 4.628906 -4.804688 4.628906 -4.226562 C 4.628906 -3.703125 4.628906 -3.125 4.570312 -2.546875 C 4.570312 -1.96875 4.515625 -1.503906 4.628906 -1.15625 C 4.804688 -0.695312 5.152344 -0.464844 5.613281 -0.289062 C 5.960938 -0.117188 6.425781 -0.0585938 6.945312 0 C 7.351562 0 7.8125 0.117188 8.335938 0.117188 C 9.027344 0.117188 9.605469 -0.0585938 9.953125 -0.289062 C 10.476562 -0.578125 10.707031 -1.101562 10.878906 -1.621094 C 10.996094 -2.140625 11.171875 -2.664062 11.171875 -3.300781 C 11.226562 -3.761719 11.285156 -4.28125 11.285156 -4.804688 C 11.285156 -5.324219 11.285156 -5.789062 11.285156 -6.308594 C 11.285156 -6.828125 11.171875 -7.351562 11.171875 -7.8125 C 11.113281 -8.335938 11.171875 -8.855469 11.171875 -9.375 C 11.113281 -9.898438 11.171875 -10.417969 11.171875 -10.878906 C 11.226562 -11.402344 11.226562 -11.921875 11.34375 -12.386719 C 11.515625 -12.90625 11.691406 -13.371094 11.921875 -13.773438 C 12.152344 -14.238281 12.386719 -14.699219 12.734375 -15.105469 C 13.078125 -15.453125 13.484375 -15.742188 13.949219 -16.089844 C 14.296875 -16.378906 14.699219 -16.785156 15.164062 -17.074219 C 15.394531 -16.667969 15.683594 -16.03125 15.972656 -15.453125 C 16.261719 -14.933594 16.550781 -14.410156 16.785156 -13.890625 C 17.074219 -13.253906 17.363281 -12.734375 17.59375 -12.328125 C 17.824219 -11.863281 18.058594 -11.402344 18.289062 -10.9375 C 18.519531 -10.476562 18.808594 -10.011719 19.042969 -9.550781 C 19.273438 -9.085938 19.621094 -8.679688 19.851562 -8.21875 C 20.082031 -7.753906 20.3125 -7.292969 20.546875 -6.828125 C 20.777344 -6.367188 20.949219 -5.84375 21.183594 -5.441406 C 21.414062 -4.917969 21.53125 -4.398438 21.761719 -3.992188 C 21.992188 -3.472656 22.222656 -3.007812 22.398438 -2.605469 C 22.6875 -2.082031 22.917969 -1.5625 23.09375 -1.214844 C 23.441406 -0.636719 23.84375 -0.347656 24.191406 -0.117188 C 24.65625 0.171875 25.117188 0.289062 25.695312 0.230469 C 26.160156 0.171875 26.621094 0.117188 27.203125 0.117188 C 27.78125 0.117188 28.300781 0.117188 28.765625 0.117188 C 29.457031 0.117188 29.921875 -0.117188 30.210938 -0.40625 C 30.441406 -0.695312 30.441406 -1.101562 30.210938 -1.851562 C 30.039062 -2.257812 29.921875 -2.71875 29.574219 -3.300781 C 29.285156 -3.878906 29.113281 -4.398438 28.878906 -4.804688 C 28.589844 -5.382812 28.183594 -5.789062 27.953125 -6.191406 C 27.605469 -6.769531 27.546875 -7.351562 27.316406 -7.699219 C 27.027344 -8.21875 26.679688 -8.566406 26.390625 -9.085938 C 26.160156 -9.550781 25.929688 -10.011719 25.695312 -10.476562 C 25.40625 -10.9375 25.292969 -11.460938 25.058594 -11.921875 C 24.828125 -12.386719 24.480469 -12.789062 24.25 -13.253906 C 23.960938 -13.714844 23.671875 -14.121094 23.382812 -14.585938 C 23.148438 -15.046875 22.859375 -15.511719 22.570312 -15.972656 C 22.339844 -16.4375 22.167969 -16.957031 21.933594 -17.421875 C 21.703125 -17.882812 21.472656 -18.347656 21.242188 -18.808594 C 20.949219 -19.273438 20.605469 -19.734375 20.371094 -20.140625 C 19.96875 -20.949219 19.734375 -20.777344 19.675781 -21.585938 C 19.621094 -22.398438 19.96875 -22.222656 20.429688 -22.976562 C 20.71875 -23.382812 20.949219 -23.960938 21.296875 -24.367188 C 21.585938 -24.65625 21.875 -25.058594 22.222656 -25.523438 C 22.511719 -25.871094 22.976562 -26.21875 23.265625 -26.621094 C 23.554688 -27.027344 23.902344 -27.375 24.191406 -27.839844 C 24.480469 -28.183594 24.769531 -28.648438 25.058594 -29.054688 C 25.347656 -29.457031 25.582031 -29.921875 25.871094 -30.328125 C 26.160156 -30.789062 26.566406 -31.078125 26.796875 -31.484375 C 27.144531 -31.945312 27.375 -32.351562 27.664062 -32.757812 C 27.953125 -33.21875 28.183594 -33.683594 28.417969 -34.03125 C 28.820312 -34.550781 28.9375 -35.074219 28.820312 -35.476562 C 28.707031 -35.941406 28.417969 -36.289062 27.722656 -36.460938 C 27.316406 -36.578125 26.796875 -36.578125 26.160156 -36.578125 C 25.464844 -36.519531 25.003906 -36.636719 24.539062 -36.578125 C 23.84375 -36.578125 23.441406 -36.402344 23.035156 -36.230469 C 22.628906 -36.054688 22.222656 -35.824219 21.761719 -35.304688 C 21.414062 -34.957031 21.183594 -34.492188 20.894531 -34.089844 C 20.546875 -33.742188 20.140625 -33.394531 19.851562 -32.988281 C 19.5625 -32.640625 19.332031 -32.179688 19.042969 -31.773438 C 18.75 -31.367188 18.460938 -30.964844 18.113281 -30.617188 C 17.769531 -30.152344 17.363281 -29.804688 17.015625 -29.402344 C 16.667969 -28.996094 16.320312 -28.53125 15.972656 -28.128906 C 15.625 -27.722656 15.277344 -27.316406 14.933594 -26.910156 C 14.527344 -26.507812 14.0625 -26.160156 13.714844 -25.753906 C 13.371094 -25.347656 13.023438 -24.945312 12.675781 -24.539062 C 12.328125 -24.132812 11.980469 -23.671875 11.574219 -23.265625 C 11.34375 -23.035156 11.054688 -23.148438 11.054688 -23.496094 C 10.996094 -23.960938 10.765625 -24.480469 10.765625 -25.117188 Z M 10.765625 -25.117188 "/></g></g></g><g fill="#000000" fill-opacity="1"><g transform="translate(106.562145, 337.383919)"><g><path d="M 11.632812 -6.539062 C 12.152344 -6.480469 12.675781 -6.367188 13.195312 -6.367188 C 13.773438 -6.367188 14.296875 -6.367188 14.816406 -6.367188 C 15.335938 -6.367188 15.859375 -6.425781 16.378906 -6.425781 C 16.898438 -6.425781 17.421875 -6.425781 17.941406 -6.425781 C 18.460938 -6.480469 19.042969 -6.597656 19.621094 -6.597656 C 20.257812 -6.539062 20.835938 -6.480469 21.355469 -6.480469 C 22.339844 -6.425781 22.339844 -6.769531 23.09375 -6.425781 C 23.730469 -6.136719 23.324219 -5.84375 23.785156 -5.152344 C 24.019531 -4.804688 24.367188 -4.457031 24.597656 -3.992188 C 24.828125 -3.589844 25.003906 -3.183594 25.175781 -2.71875 C 25.40625 -2.316406 25.640625 -1.851562 25.695312 -1.445312 C 25.871094 -0.808594 26.160156 -0.519531 26.449219 -0.289062 C 26.796875 -0.0585938 27.203125 -0.0585938 27.78125 -0.0585938 C 28.183594 -0.0585938 28.707031 0 29.226562 0 C 29.804688 0 30.269531 -0.117188 30.675781 -0.171875 C 31.3125 -0.289062 31.714844 -0.464844 31.890625 -0.808594 C 32.0625 -1.15625 32.003906 -1.621094 31.773438 -2.257812 C 31.601562 -2.664062 31.425781 -3.183594 31.195312 -3.703125 C 31.019531 -4.167969 30.964844 -4.746094 30.730469 -5.207031 C 30.558594 -5.730469 30.210938 -6.136719 30.039062 -6.65625 C 29.804688 -7.175781 29.632812 -7.640625 29.402344 -8.160156 C 29.226562 -8.625 29.167969 -9.203125 28.996094 -9.664062 C 28.765625 -10.1875 28.476562 -10.648438 28.300781 -11.113281 C 28.128906 -11.632812 27.839844 -12.097656 27.664062 -12.558594 C 27.492188 -13.023438 27.375 -13.542969 27.203125 -14.003906 C 27.027344 -14.46875 26.738281 -14.933594 26.566406 -15.394531 C 26.390625 -15.914062 26.160156 -16.378906 25.984375 -16.839844 C 25.8125 -17.304688 25.695312 -17.824219 25.523438 -18.289062 C 25.347656 -18.808594 25.175781 -19.273438 25.003906 -19.734375 C 24.769531 -20.199219 24.597656 -20.660156 24.367188 -21.183594 C 24.191406 -21.644531 24.132812 -22.167969 23.960938 -22.628906 C 23.785156 -23.148438 23.441406 -23.554688 23.265625 -24.019531 C 23.09375 -24.480469 22.976562 -25.003906 22.804688 -25.464844 C 22.570312 -25.984375 22.511719 -26.449219 22.339844 -26.96875 C 22.167969 -27.433594 21.875 -27.894531 21.644531 -28.359375 C 21.472656 -28.820312 21.355469 -29.34375 21.183594 -29.804688 C 20.949219 -30.269531 20.777344 -30.730469 20.605469 -31.253906 C 20.429688 -31.714844 20.140625 -32.179688 19.96875 -32.640625 C 19.792969 -33.105469 19.5625 -33.566406 19.386719 -34.03125 C 19.097656 -34.78125 19.042969 -35.363281 18.808594 -35.710938 C 18.347656 -36.402344 17.882812 -36.519531 17.304688 -36.578125 C 16.839844 -36.636719 16.320312 -36.636719 15.570312 -36.578125 C 15.046875 -36.578125 14.757812 -36.519531 14.296875 -36.171875 C 14.0625 -35.941406 13.660156 -35.710938 13.3125 -35.1875 C 13.136719 -34.839844 13.078125 -34.378906 12.847656 -33.855469 C 12.675781 -33.453125 12.441406 -33.046875 12.269531 -32.582031 C 12.097656 -32.121094 11.980469 -31.601562 11.804688 -31.078125 C 11.632812 -30.617188 11.460938 -30.152344 11.285156 -29.632812 C 11.113281 -29.167969 10.9375 -28.648438 10.765625 -28.183594 C 10.589844 -27.664062 10.359375 -27.203125 10.1875 -26.679688 C 10.011719 -26.21875 10.011719 -25.640625 9.839844 -25.175781 C 9.664062 -24.65625 9.375 -24.25 9.203125 -23.730469 C 9.027344 -23.265625 8.96875 -22.746094 8.796875 -22.222656 C 8.625 -21.703125 8.335938 -21.296875 8.160156 -20.777344 C 8.042969 -20.3125 7.871094 -19.792969 7.699219 -19.273438 C 7.523438 -18.808594 7.40625 -18.289062 7.234375 -17.824219 C 7.0625 -17.304688 6.886719 -16.839844 6.714844 -16.320312 C 6.539062 -15.859375 6.425781 -15.335938 6.25 -14.816406 C 6.078125 -14.351562 5.730469 -13.890625 5.554688 -13.425781 C 5.382812 -12.964844 5.441406 -12.386719 5.265625 -11.863281 C 5.09375 -11.402344 4.917969 -10.9375 4.746094 -10.417969 C 4.570312 -9.953125 4.226562 -9.492188 4.050781 -9.027344 C 3.878906 -8.507812 3.878906 -7.988281 3.703125 -7.523438 C 3.53125 -7.003906 3.300781 -6.539062 3.125 -6.078125 C 3.007812 -5.789062 2.777344 -5.152344 2.488281 -4.457031 C 2.316406 -3.933594 2.140625 -3.355469 1.910156 -2.835938 C 1.679688 -2.082031 1.5625 -1.445312 1.5625 -1.15625 C 1.445312 -0.171875 1.792969 0.0585938 2.546875 0.0585938 C 3.066406 0.117188 3.703125 0 4.457031 0.0585938 C 4.976562 0.117188 5.671875 0.117188 6.308594 0 C 6.945312 -0.117188 7.40625 -0.347656 7.753906 -0.925781 C 7.988281 -1.390625 8.277344 -1.792969 8.449219 -2.257812 C 8.625 -2.71875 8.796875 -3.183594 8.96875 -3.644531 C 9.144531 -4.109375 9.261719 -4.570312 9.492188 -5.035156 C 9.664062 -5.5 9.78125 -6.019531 10.011719 -6.480469 C 10.535156 -6.480469 11.113281 -6.539062 11.632812 -6.539062 Z M 12.386719 -14.238281 C 12.558594 -14.757812 12.734375 -15.222656 12.90625 -15.683594 C 13.078125 -16.207031 13.253906 -16.667969 13.425781 -17.1875 C 13.601562 -17.652344 13.773438 -18.113281 14.003906 -18.578125 C 14.179688 -19.097656 14.296875 -19.5625 14.527344 -20.023438 C 14.699219 -20.546875 15.046875 -20.949219 15.222656 -21.414062 C 15.394531 -21.875 15.394531 -22.457031 15.570312 -22.976562 C 15.742188 -23.441406 16.03125 -23.960938 16.207031 -24.480469 C 16.496094 -23.960938 16.667969 -23.382812 16.898438 -22.976562 C 17.1875 -22.457031 17.535156 -22.050781 17.769531 -21.585938 C 18.058594 -21.125 18.230469 -20.605469 18.40625 -20.140625 C 18.636719 -19.675781 18.808594 -19.15625 18.984375 -18.695312 C 19.214844 -18.171875 19.445312 -17.710938 19.621094 -17.1875 C 19.851562 -16.726562 20.140625 -16.261719 20.3125 -15.800781 C 20.546875 -15.277344 20.605469 -14.757812 20.777344 -14.238281 C 21.007812 -13.773438 21.242188 -13.3125 21.472656 -12.789062 C 20.894531 -12.789062 20.429688 -12.734375 19.910156 -12.734375 C 19.332031 -12.734375 18.808594 -12.734375 18.289062 -12.734375 C 17.710938 -12.734375 17.1875 -12.847656 16.667969 -12.847656 C 16.148438 -12.847656 15.625 -12.789062 15.046875 -12.789062 C 14.527344 -12.789062 14.003906 -12.789062 13.425781 -12.789062 C 12.90625 -12.789062 12.328125 -12.734375 11.75 -12.734375 C 11.921875 -13.253906 12.210938 -13.773438 12.386719 -14.238281 Z M 12.386719 -14.238281 "/></g></g></g><g fill="#000000" fill-opacity="1"><g transform="translate(140.125626, 337.383919)"><g><path d="M 12.441406 -14.296875 C 13.023438 -14.410156 13.542969 -14.699219 14.003906 -14.757812 C 14.640625 -14.816406 15.222656 -14.757812 15.683594 -14.699219 C 16.320312 -14.699219 16.785156 -14.585938 17.246094 -14.296875 C 17.652344 -14.0625 18.058594 -13.714844 18.40625 -13.195312 C 18.636719 -12.789062 18.867188 -12.269531 19.15625 -11.691406 C 19.332031 -11.226562 19.503906 -10.707031 19.792969 -10.1875 C 19.96875 -9.722656 20.3125 -9.261719 20.546875 -8.738281 C 20.777344 -8.21875 20.894531 -7.699219 21.125 -7.175781 C 21.355469 -6.65625 21.585938 -6.191406 21.820312 -5.671875 C 22.050781 -5.152344 22.398438 -4.746094 22.628906 -4.226562 C 22.859375 -3.761719 23.148438 -3.242188 23.324219 -2.777344 C 23.613281 -2.199219 23.730469 -1.679688 23.960938 -1.273438 C 24.308594 -0.695312 24.769531 -0.464844 25.117188 -0.230469 C 25.582031 0 25.984375 0 26.621094 0 C 27.085938 -0.0585938 27.605469 -0.0585938 28.242188 -0.0585938 C 28.820312 -0.0585938 29.34375 0 29.691406 -0.0585938 C 30.328125 -0.171875 30.617188 -0.40625 30.558594 -0.984375 C 30.5 -1.332031 30.441406 -1.851562 30.210938 -2.429688 C 30.09375 -2.835938 29.746094 -3.242188 29.515625 -3.761719 C 29.34375 -4.226562 29.167969 -4.6875 28.9375 -5.207031 C 28.765625 -5.671875 28.417969 -6.136719 28.183594 -6.65625 C 28.011719 -7.117188 27.78125 -7.582031 27.605469 -8.101562 C 27.375 -8.566406 27.144531 -9.027344 26.910156 -9.492188 C 26.679688 -10.011719 26.507812 -10.476562 26.277344 -10.9375 C 26.042969 -11.460938 25.871094 -11.921875 25.640625 -12.386719 C 25.40625 -12.90625 25.175781 -13.371094 25.003906 -13.832031 C 24.769531 -14.296875 24.65625 -14.875 24.480469 -15.335938 C 24.308594 -15.683594 24.308594 -16.148438 24.65625 -16.4375 C 25.175781 -16.898438 25.640625 -17.363281 26.042969 -17.710938 C 26.566406 -18.171875 27.144531 -18.460938 27.605469 -18.925781 C 27.953125 -19.332031 28.183594 -19.792969 28.476562 -20.199219 C 28.765625 -20.605469 29.054688 -21.066406 29.285156 -21.53125 C 29.457031 -21.992188 29.574219 -22.511719 29.746094 -22.976562 C 29.863281 -23.496094 29.980469 -23.960938 30.039062 -24.480469 C 30.09375 -24.945312 30.210938 -25.464844 30.210938 -25.984375 C 30.210938 -26.507812 30.269531 -27.027344 30.210938 -27.546875 C 30.152344 -28.011719 29.921875 -28.53125 29.746094 -28.996094 C 29.632812 -29.515625 29.402344 -29.980469 29.226562 -30.441406 C 28.996094 -30.90625 28.820312 -31.367188 28.53125 -31.773438 C 28.242188 -32.179688 27.953125 -32.582031 27.605469 -32.988281 C 27.257812 -33.335938 26.855469 -33.683594 26.449219 -33.972656 C 26.042969 -34.320312 25.695312 -34.609375 25.234375 -34.898438 C 24.769531 -35.128906 24.308594 -35.304688 23.84375 -35.476562 C 23.382812 -35.652344 22.917969 -35.941406 22.398438 -36 C 21.820312 -36.113281 21.296875 -36.054688 20.71875 -36.171875 C 20.199219 -36.230469 19.675781 -36.347656 19.097656 -36.402344 C 18.578125 -36.460938 18 -36.460938 17.476562 -36.519531 C 16.898438 -36.519531 16.378906 -36.578125 15.800781 -36.636719 C 15.277344 -36.636719 14.699219 -36.578125 14.179688 -36.636719 C 13.660156 -36.636719 13.078125 -36.636719 12.558594 -36.636719 C 11.980469 -36.636719 11.460938 -36.691406 10.878906 -36.691406 C 10.359375 -36.636719 9.78125 -36.578125 9.261719 -36.578125 C 8.625 -36.578125 8.042969 -36.636719 7.523438 -36.636719 C 6.828125 -36.636719 6.308594 -36.519531 5.84375 -36.347656 C 5.324219 -36.113281 5.035156 -35.765625 4.863281 -35.074219 C 4.804688 -34.609375 4.746094 -34.03125 4.746094 -33.335938 C 4.6875 -32.816406 4.6875 -32.292969 4.6875 -31.773438 C 4.6875 -31.3125 4.6875 -30.789062 4.6875 -30.269531 C 4.6875 -29.746094 4.6875 -29.226562 4.6875 -28.707031 C 4.6875 -28.183594 4.6875 -27.664062 4.6875 -27.144531 C 4.6875 -26.621094 4.628906 -26.101562 4.570312 -25.582031 C 4.570312 -25.058594 4.457031 -24.539062 4.457031 -24.019531 C 4.457031 -23.496094 4.570312 -22.976562 4.570312 -22.457031 C 4.570312 -21.933594 4.515625 -21.414062 4.515625 -20.894531 C 4.515625 -20.371094 4.515625 -19.851562 4.515625 -19.332031 C 4.515625 -18.808594 4.515625 -18.289062 4.515625 -17.769531 C 4.515625 -17.246094 4.570312 -16.726562 4.570312 -16.207031 C 4.570312 -15.683594 4.457031 -15.222656 4.457031 -14.699219 C 4.457031 -14.179688 4.457031 -13.660156 4.457031 -13.136719 C 4.457031 -12.617188 4.515625 -12.097656 4.515625 -11.574219 C 4.515625 -11.054688 4.457031 -10.535156 4.457031 -10.070312 C 4.515625 -9.550781 4.515625 -9.027344 4.515625 -8.507812 C 4.515625 -7.988281 4.515625 -7.464844 4.515625 -6.945312 C 4.515625 -6.425781 4.628906 -5.902344 4.628906 -5.382812 C 4.628906 -4.917969 4.515625 -4.398438 4.457031 -3.820312 C 4.398438 -3.242188 4.457031 -2.71875 4.457031 -2.199219 C 4.515625 -1.5625 4.457031 -0.984375 4.6875 -0.578125 C 4.863281 -0.171875 5.554688 -0.117188 6.191406 0 C 6.828125 0.117188 7.523438 0.117188 7.871094 0.0585938 C 8.335938 -0.0585938 8.855469 0 9.316406 -0.0585938 C 9.898438 -0.171875 10.417969 -0.289062 10.589844 -0.753906 C 10.765625 -1.214844 10.824219 -1.851562 10.824219 -2.488281 C 10.878906 -3.066406 10.878906 -3.703125 10.878906 -4.28125 C 10.824219 -4.976562 10.824219 -5.554688 10.824219 -6.078125 C 10.824219 -6.597656 10.824219 -7.175781 10.824219 -7.699219 C 10.824219 -8.21875 10.824219 -8.796875 10.824219 -9.316406 C 10.824219 -9.839844 10.707031 -10.417969 10.707031 -10.9375 C 10.707031 -11.460938 10.878906 -12.039062 10.878906 -12.558594 C 10.878906 -13.078125 10.707031 -13.660156 10.707031 -14.179688 C 11.34375 -14.296875 11.921875 -14.238281 12.441406 -14.296875 Z M 10.996094 -22.339844 C 10.996094 -22.917969 11.054688 -23.441406 11.054688 -23.960938 C 11.054688 -24.539062 11.054688 -25.058594 11.054688 -25.582031 C 11.054688 -26.101562 10.996094 -26.679688 10.996094 -27.203125 C 10.996094 -27.722656 11.054688 -28.300781 11.054688 -28.820312 C 11.054688 -29.34375 11.054688 -29.804688 11.054688 -30.382812 C 11.632812 -30.382812 12.097656 -30.441406 12.617188 -30.441406 C 13.136719 -30.441406 13.660156 -30.441406 14.179688 -30.441406 C 14.757812 -30.441406 15.277344 -30.5 15.800781 -30.5 C 16.320312 -30.5 16.839844 -30.5 17.363281 -30.5 C 17.882812 -30.441406 18.460938 -30.5 18.984375 -30.5 C 19.503906 -30.441406 19.96875 -30.328125 20.371094 -30.152344 C 20.894531 -30.039062 21.414062 -29.980469 21.820312 -29.746094 C 22.222656 -29.515625 22.570312 -29.113281 22.917969 -28.820312 C 23.265625 -28.476562 23.671875 -28.128906 23.84375 -27.722656 C 24.078125 -27.257812 24.191406 -26.738281 24.191406 -26.277344 C 24.25 -25.695312 24.078125 -25.175781 23.902344 -24.597656 C 23.730469 -24.078125 23.324219 -23.671875 22.976562 -23.207031 C 22.628906 -22.804688 22.28125 -22.339844 21.820312 -21.992188 C 21.414062 -21.703125 20.894531 -21.414062 20.371094 -21.242188 C 19.851562 -21.007812 19.332031 -20.894531 18.75 -20.835938 C 18.289062 -20.835938 17.769531 -20.71875 17.246094 -20.71875 C 16.726562 -20.71875 16.207031 -20.71875 15.683594 -20.71875 C 15.164062 -20.71875 14.640625 -20.605469 14.121094 -20.605469 C 13.601562 -20.605469 13.078125 -20.777344 12.558594 -20.777344 C 12.039062 -20.835938 11.515625 -20.660156 10.9375 -20.660156 C 10.9375 -21.242188 11.054688 -21.820312 10.996094 -22.339844 Z M 10.996094 -22.339844 "/></g></g></g><g fill="#000000" fill-opacity="1"><g transform="translate(173.746984, 337.383919)"><g><path d="M 14.121094 -26.390625 C 13.890625 -26.855469 13.714844 -27.375 13.484375 -27.78125 C 13.136719 -28.359375 12.734375 -28.707031 12.5 -28.996094 C 12.152344 -29.34375 11.804688 -29.746094 11.515625 -30.152344 C 11.171875 -30.558594 10.996094 -31.019531 10.765625 -31.484375 C 10.476562 -31.890625 10.1875 -32.292969 10.011719 -32.757812 C 9.78125 -33.335938 9.550781 -33.800781 9.375 -34.203125 C 9.085938 -34.726562 8.914062 -35.1875 8.679688 -35.476562 C 8.277344 -36 7.929688 -36.289062 7.464844 -36.402344 C 7.0625 -36.578125 6.539062 -36.519531 5.960938 -36.519531 C 5.5 -36.519531 5.035156 -36.691406 4.457031 -36.691406 C 3.878906 -36.691406 3.414062 -36.578125 2.953125 -36.578125 C 2.316406 -36.578125 1.734375 -36.519531 1.445312 -36.347656 C 1.101562 -36.054688 0.984375 -35.59375 1.15625 -34.839844 C 1.273438 -34.550781 1.679688 -34.03125 2.082031 -33.394531 C 2.316406 -32.929688 2.664062 -32.410156 3.007812 -31.945312 C 3.300781 -31.425781 3.644531 -30.90625 3.933594 -30.5 C 4.339844 -29.863281 4.804688 -29.402344 4.976562 -29.113281 C 5.265625 -28.765625 5.441406 -28.300781 5.730469 -27.839844 C 6.019531 -27.492188 6.308594 -27.085938 6.597656 -26.621094 C 6.828125 -26.21875 7.0625 -25.753906 7.351562 -25.347656 C 7.582031 -24.945312 7.871094 -24.539062 8.160156 -24.132812 C 8.449219 -23.671875 8.679688 -23.265625 8.96875 -22.859375 C 9.261719 -22.457031 9.550781 -22.050781 9.839844 -21.644531 C 10.128906 -21.242188 10.300781 -20.777344 10.589844 -20.371094 C 10.824219 -20.082031 11.226562 -19.734375 11.460938 -19.273438 C 11.632812 -18.925781 11.804688 -18.460938 11.980469 -18.058594 C 12.210938 -17.535156 12.386719 -17.015625 12.386719 -16.726562 C 12.386719 -15.972656 12.269531 -15.511719 12.269531 -15.105469 C 12.269531 -14.527344 12.386719 -14.121094 12.328125 -13.542969 C 12.328125 -13.078125 12.328125 -12.617188 12.328125 -11.863281 C 12.269531 -11.34375 12.152344 -10.824219 12.152344 -10.242188 C 12.097656 -9.664062 12.152344 -9.085938 12.097656 -8.566406 C 12.097656 -7.988281 12.039062 -7.40625 11.980469 -6.828125 C 11.980469 -6.308594 11.863281 -5.730469 11.804688 -5.152344 C 11.804688 -4.628906 11.863281 -4.050781 11.863281 -3.472656 C 11.863281 -2.894531 11.921875 -2.371094 11.980469 -1.851562 C 11.980469 -1.214844 12.097656 -0.808594 12.386719 -0.519531 C 12.675781 -0.230469 13.136719 -0.0585938 13.660156 0 C 14.0625 0.0585938 14.585938 0.0585938 15.105469 0.0585938 C 15.625 0.0585938 16.207031 -0.0585938 16.785156 -0.171875 C 17.363281 -0.230469 17.941406 -0.289062 18.347656 -0.578125 C 18.867188 -0.867188 19.214844 -1.332031 19.214844 -1.96875 C 19.15625 -2.488281 19.097656 -2.953125 19.042969 -3.414062 C 19.042969 -3.820312 19.042969 -4.28125 19.042969 -4.863281 C 19.042969 -5.265625 18.925781 -5.730469 18.925781 -6.308594 C 18.925781 -6.769531 19.042969 -7.234375 19.042969 -7.753906 C 19.097656 -8.21875 19.042969 -8.679688 19.042969 -9.261719 C 19.097656 -9.78125 19.15625 -10.359375 19.15625 -10.996094 C 19.097656 -11.574219 19.042969 -12.152344 18.984375 -12.734375 C 18.925781 -13.371094 18.867188 -13.949219 18.808594 -14.46875 C 18.75 -15.164062 18.75 -15.800781 18.75 -16.207031 C 18.75 -16.726562 18.867188 -17.246094 19.097656 -17.824219 C 19.332031 -18.347656 19.503906 -18.867188 19.792969 -19.445312 C 20.082031 -19.910156 20.371094 -20.371094 20.71875 -20.894531 C 21.066406 -21.355469 21.414062 -21.761719 21.820312 -22.222656 C 22.109375 -22.6875 22.570312 -23.09375 22.917969 -23.554688 C 23.148438 -23.785156 23.441406 -24.308594 23.902344 -24.886719 C 24.191406 -25.292969 24.480469 -25.753906 24.828125 -26.21875 C 25.175781 -26.621094 25.347656 -27.144531 25.695312 -27.605469 C 25.984375 -28.070312 26.390625 -28.476562 26.738281 -28.9375 C 27.027344 -29.402344 27.375 -29.804688 27.664062 -30.269531 C 28.011719 -30.730469 28.300781 -31.195312 28.589844 -31.601562 C 28.9375 -32.121094 29.113281 -32.640625 29.34375 -33.046875 C 29.804688 -33.683594 30.09375 -34.148438 30.269531 -34.4375 C 30.789062 -35.1875 31.019531 -35.652344 30.847656 -35.941406 C 30.675781 -36.289062 30.152344 -36.519531 29.285156 -36.578125 C 28.820312 -36.636719 28.242188 -36.519531 27.546875 -36.519531 C 26.910156 -36.519531 26.390625 -36.75 25.984375 -36.75 C 25.292969 -36.75 24.886719 -36.578125 24.480469 -36.230469 C 24.191406 -36 23.902344 -35.59375 23.441406 -35.015625 C 23.207031 -34.667969 22.746094 -34.320312 22.398438 -33.800781 C 22.109375 -33.453125 21.875 -32.988281 21.585938 -32.527344 C 21.355469 -32.121094 21.183594 -31.65625 20.894531 -31.253906 C 20.660156 -30.847656 20.429688 -30.382812 20.199219 -29.921875 C 19.96875 -29.515625 19.621094 -29.167969 19.386719 -28.707031 C 19.15625 -28.300781 18.867188 -27.894531 18.636719 -27.433594 C 18.347656 -27.027344 18.230469 -26.507812 17.941406 -26.101562 C 17.652344 -25.695312 17.363281 -25.347656 17.074219 -24.945312 C 16.785156 -24.539062 16.378906 -24.421875 15.972656 -24.480469 C 15.511719 -24.480469 15.105469 -24.597656 14.875 -25.003906 C 14.585938 -25.464844 14.351562 -25.929688 14.121094 -26.390625 Z M 14.121094 -26.390625 "/></g></g></g><g fill="#000000" fill-opacity="1"><g transform="translate(205.748031, 337.383919)"><g/></g></g><g fill="#000000" fill-opacity="1"><g transform="translate(222.008959, 337.383919)"><g><path d="M 30.964844 -20.894531 C 30.964844 -21.355469 30.730469 -21.820312 30.730469 -22.28125 C 30.675781 -22.804688 30.617188 -23.265625 30.558594 -23.730469 C 30.5 -24.191406 30.558594 -24.710938 30.441406 -25.175781 C 30.269531 -25.695312 29.980469 -26.160156 29.863281 -26.738281 C 29.691406 -27.257812 29.574219 -27.78125 29.402344 -28.300781 C 29.226562 -28.820312 29.113281 -29.402344 28.878906 -29.863281 C 28.707031 -30.382812 28.53125 -30.90625 28.242188 -31.425781 C 28.011719 -31.890625 27.722656 -32.410156 27.375 -32.816406 C 27.085938 -33.277344 26.738281 -33.742188 26.332031 -34.148438 C 25.929688 -34.492188 25.40625 -34.726562 24.945312 -35.074219 C 24.480469 -35.363281 24.019531 -35.652344 23.496094 -35.882812 C 23.035156 -36.113281 22.457031 -36.230469 21.933594 -36.402344 C 21.414062 -36.519531 20.894531 -36.691406 20.3125 -36.808594 C 19.792969 -36.925781 19.273438 -36.980469 18.695312 -36.980469 C 18.171875 -37.039062 17.59375 -37.039062 17.074219 -37.039062 C 16.496094 -37.039062 15.972656 -37.039062 15.394531 -36.925781 C 14.875 -36.867188 14.351562 -36.75 13.773438 -36.636719 C 13.253906 -36.519531 12.675781 -36.519531 12.152344 -36.347656 C 11.632812 -36.113281 11.171875 -35.824219 10.707031 -35.535156 C 10.1875 -35.304688 9.78125 -35.015625 9.316406 -34.667969 C 8.855469 -34.378906 8.277344 -34.203125 7.871094 -33.800781 C 7.464844 -33.453125 7.175781 -32.988281 6.769531 -32.527344 C 6.480469 -32.121094 6.136719 -31.65625 5.84375 -31.195312 C 5.554688 -30.730469 5.382812 -30.152344 5.207031 -29.632812 C 4.976562 -29.167969 4.804688 -28.648438 4.628906 -28.070312 C 4.515625 -27.546875 4.28125 -27.027344 4.167969 -26.507812 C 4.050781 -25.929688 3.820312 -25.40625 3.703125 -24.886719 C 3.589844 -24.308594 3.644531 -23.730469 3.589844 -23.207031 C 3.53125 -22.628906 3.472656 -22.109375 3.414062 -21.53125 C 3.355469 -21.007812 3.242188 -20.429688 3.242188 -19.910156 C 3.183594 -19.332031 3.183594 -18.808594 3.242188 -18.230469 C 3.242188 -17.652344 3.300781 -17.132812 3.355469 -16.550781 C 3.355469 -16.03125 3.355469 -15.453125 3.414062 -14.875 C 3.472656 -14.351562 3.589844 -13.832031 3.703125 -13.253906 C 3.820312 -12.734375 3.761719 -12.152344 3.933594 -11.574219 C 4.050781 -11.113281 4.339844 -10.648438 4.457031 -10.128906 C 4.628906 -9.605469 4.746094 -9.085938 4.917969 -8.625 C 5.09375 -8.101562 5.324219 -7.640625 5.554688 -7.175781 C 5.789062 -6.714844 6.019531 -6.25 6.25 -5.789062 C 6.539062 -5.324219 6.886719 -4.917969 7.175781 -4.457031 C 7.523438 -3.992188 7.8125 -3.589844 8.21875 -3.183594 C 8.625 -2.777344 9.027344 -2.371094 9.433594 -2.027344 C 9.839844 -1.679688 10.359375 -1.390625 10.824219 -1.101562 C 11.285156 -0.808594 11.804688 -0.519531 12.269531 -0.289062 C 12.789062 -0.0585938 13.371094 0.0585938 13.890625 0.171875 C 14.410156 0.347656 14.988281 0.40625 15.511719 0.519531 C 16.089844 0.578125 16.609375 0.578125 17.1875 0.578125 C 17.710938 0.578125 18.289062 0.578125 18.808594 0.464844 C 19.386719 0.40625 19.910156 0.289062 20.429688 0.117188 C 20.949219 -0.0585938 21.472656 -0.230469 21.992188 -0.464844 C 22.511719 -0.695312 22.976562 -0.984375 23.441406 -1.273438 C 23.902344 -1.621094 24.367188 -1.851562 24.828125 -2.257812 C 25.234375 -2.605469 25.695312 -2.894531 26.101562 -3.300781 C 26.449219 -3.703125 26.738281 -4.226562 27.027344 -4.6875 C 27.316406 -5.152344 27.605469 -5.554688 27.894531 -6.019531 C 28.128906 -6.425781 28.417969 -6.886719 28.648438 -7.351562 C 28.878906 -7.8125 29.054688 -8.277344 29.285156 -8.796875 C 29.457031 -9.261719 29.574219 -9.78125 29.746094 -10.242188 C 29.921875 -10.765625 30.152344 -11.226562 30.269531 -11.691406 C 30.382812 -12.210938 30.558594 -12.734375 30.675781 -13.253906 C 30.730469 -13.714844 30.789062 -14.238281 30.847656 -14.757812 C 30.90625 -15.277344 30.964844 -15.800781 31.019531 -16.320312 C 31.019531 -16.839844 31.019531 -17.363281 31.019531 -17.882812 C 31.019531 -18.40625 31.019531 -18.925781 31.019531 -19.445312 C 30.964844 -19.910156 31.019531 -20.371094 30.964844 -20.894531 Z M 9.261719 -19.5625 C 9.316406 -20.082031 9.261719 -20.546875 9.316406 -21.066406 C 9.375 -21.53125 9.375 -22.050781 9.433594 -22.511719 C 9.492188 -23.035156 9.605469 -23.496094 9.722656 -23.960938 C 9.78125 -24.480469 9.953125 -24.945312 10.070312 -25.40625 C 10.1875 -25.929688 10.242188 -26.507812 10.476562 -26.96875 C 10.765625 -27.433594 11.054688 -27.894531 11.34375 -28.300781 C 11.691406 -28.765625 12.152344 -29.113281 12.558594 -29.457031 C 12.964844 -29.746094 13.425781 -30.09375 13.890625 -30.328125 C 14.351562 -30.558594 14.875 -30.847656 15.394531 -30.964844 C 15.914062 -31.136719 16.496094 -31.136719 17.015625 -31.136719 C 17.535156 -31.136719 18.058594 -31.136719 18.578125 -30.964844 C 19.042969 -30.847656 19.503906 -30.558594 19.96875 -30.269531 C 20.429688 -30.039062 20.894531 -29.863281 21.296875 -29.515625 C 21.703125 -29.167969 21.992188 -28.707031 22.339844 -28.300781 C 22.628906 -27.894531 22.917969 -27.492188 23.207031 -26.96875 C 23.441406 -26.566406 23.613281 -26.042969 23.785156 -25.523438 C 23.960938 -25.003906 24.132812 -24.480469 24.25 -23.960938 C 24.367188 -23.441406 24.480469 -22.917969 24.597656 -22.398438 C 24.65625 -21.820312 24.710938 -21.296875 24.769531 -20.777344 C 24.828125 -20.199219 24.945312 -19.675781 25.003906 -19.15625 C 25.003906 -18.578125 24.945312 -18.058594 24.945312 -17.535156 C 24.945312 -16.957031 24.945312 -16.4375 24.886719 -15.859375 C 24.828125 -15.335938 24.710938 -14.816406 24.597656 -14.238281 C 24.480469 -13.714844 24.367188 -13.195312 24.25 -12.675781 C 24.078125 -12.152344 23.902344 -11.632812 23.671875 -11.113281 C 23.496094 -10.589844 23.265625 -10.128906 23.035156 -9.722656 C 22.804688 -9.261719 22.511719 -8.796875 22.222656 -8.449219 C 21.875 -8.042969 21.53125 -7.640625 21.125 -7.351562 C 20.71875 -7.003906 20.257812 -6.828125 19.792969 -6.597656 C 19.332031 -6.367188 18.808594 -6.367188 18.289062 -6.308594 C 17.824219 -6.191406 17.304688 -6.078125 16.785156 -6.136719 C 16.261719 -6.191406 15.742188 -6.25 15.277344 -6.425781 C 14.757812 -6.539062 14.238281 -6.769531 13.832031 -7.003906 C 13.371094 -7.234375 12.964844 -7.582031 12.617188 -7.929688 C 12.210938 -8.277344 11.863281 -8.679688 11.574219 -9.144531 C 11.285156 -9.550781 11.113281 -10.070312 10.9375 -10.535156 C 10.707031 -10.996094 10.589844 -11.515625 10.417969 -12.039062 C 10.242188 -12.5 10.070312 -13.023438 9.953125 -13.484375 C 9.839844 -14.003906 9.78125 -14.527344 9.664062 -15.046875 C 9.605469 -15.570312 9.433594 -16.089844 9.375 -16.550781 C 9.261719 -17.074219 9.203125 -17.59375 9.085938 -18.113281 C 9.144531 -18.578125 9.203125 -19.097656 9.261719 -19.5625 Z M 9.261719 -19.5625 "/></g></g></g><g fill="#000000" fill-opacity="1"><g transform="translate(256.324739, 337.383919)"><g><path d="M 10.765625 -25.117188 C 10.765625 -25.640625 10.878906 -26.160156 10.824219 -26.738281 C 10.824219 -27.316406 10.707031 -27.839844 10.707031 -28.359375 C 10.707031 -28.9375 10.765625 -29.515625 10.765625 -29.980469 C 10.765625 -30.382812 10.589844 -30.90625 10.535156 -31.484375 C 10.535156 -31.945312 10.476562 -32.46875 10.476562 -32.988281 C 10.417969 -33.566406 10.535156 -34.089844 10.535156 -34.492188 C 10.476562 -35.128906 10.300781 -35.535156 10.070312 -35.882812 C 9.839844 -36.289062 9.433594 -36.402344 8.855469 -36.460938 C 8.449219 -36.519531 7.988281 -36.578125 7.40625 -36.519531 C 6.828125 -36.519531 6.367188 -36.519531 5.960938 -36.460938 C 5.382812 -36.347656 5.035156 -36.054688 4.804688 -35.652344 C 4.628906 -35.304688 4.398438 -34.898438 4.457031 -34.261719 C 4.457031 -33.914062 4.515625 -33.335938 4.515625 -32.757812 C 4.515625 -32.179688 4.457031 -31.601562 4.457031 -31.253906 C 4.457031 -30.730469 4.457031 -30.210938 4.457031 -29.691406 C 4.457031 -29.167969 4.570312 -28.648438 4.570312 -28.128906 C 4.570312 -27.605469 4.570312 -27.085938 4.570312 -26.566406 C 4.570312 -25.984375 4.515625 -25.464844 4.515625 -24.945312 C 4.515625 -24.421875 4.628906 -23.902344 4.628906 -23.382812 C 4.628906 -22.859375 4.570312 -22.339844 4.570312 -21.820312 C 4.570312 -21.296875 4.570312 -20.71875 4.570312 -20.199219 C 4.570312 -19.675781 4.515625 -19.15625 4.515625 -18.636719 C 4.515625 -18.113281 4.515625 -17.59375 4.515625 -17.074219 C 4.515625 -16.550781 4.515625 -16.03125 4.515625 -15.511719 C 4.515625 -14.933594 4.570312 -14.410156 4.570312 -13.890625 C 4.570312 -13.371094 4.457031 -12.847656 4.515625 -12.328125 C 4.515625 -11.804688 4.6875 -11.285156 4.6875 -10.765625 C 4.6875 -10.242188 4.628906 -9.722656 4.628906 -9.144531 C 4.628906 -8.625 4.6875 -8.101562 4.6875 -7.582031 C 4.6875 -7.0625 4.570312 -6.539062 4.570312 -5.902344 C 4.570312 -5.382812 4.628906 -4.804688 4.628906 -4.226562 C 4.628906 -3.703125 4.628906 -3.125 4.570312 -2.546875 C 4.570312 -1.96875 4.515625 -1.503906 4.628906 -1.15625 C 4.804688 -0.695312 5.152344 -0.464844 5.613281 -0.289062 C 5.960938 -0.117188 6.425781 -0.0585938 6.945312 0 C 7.351562 0 7.8125 0.117188 8.335938 0.117188 C 9.027344 0.117188 9.605469 -0.0585938 9.953125 -0.289062 C 10.476562 -0.578125 10.707031 -1.101562 10.878906 -1.621094 C 10.996094 -2.140625 11.171875 -2.664062 11.171875 -3.300781 C 11.226562 -3.761719 11.285156 -4.28125 11.285156 -4.804688 C 11.285156 -5.324219 11.285156 -5.789062 11.285156 -6.308594 C 11.285156 -6.828125 11.171875 -7.351562 11.171875 -7.8125 C 11.113281 -8.335938 11.171875 -8.855469 11.171875 -9.375 C 11.113281 -9.898438 11.171875 -10.417969 11.171875 -10.878906 C 11.226562 -11.402344 11.226562 -11.921875 11.34375 -12.386719 C 11.515625 -12.90625 11.691406 -13.371094 11.921875 -13.773438 C 12.152344 -14.238281 12.386719 -14.699219 12.734375 -15.105469 C 13.078125 -15.453125 13.484375 -15.742188 13.949219 -16.089844 C 14.296875 -16.378906 14.699219 -16.785156 15.164062 -17.074219 C 15.394531 -16.667969 15.683594 -16.03125 15.972656 -15.453125 C 16.261719 -14.933594 16.550781 -14.410156 16.785156 -13.890625 C 17.074219 -13.253906 17.363281 -12.734375 17.59375 -12.328125 C 17.824219 -11.863281 18.058594 -11.402344 18.289062 -10.9375 C 18.519531 -10.476562 18.808594 -10.011719 19.042969 -9.550781 C 19.273438 -9.085938 19.621094 -8.679688 19.851562 -8.21875 C 20.082031 -7.753906 20.3125 -7.292969 20.546875 -6.828125 C 20.777344 -6.367188 20.949219 -5.84375 21.183594 -5.441406 C 21.414062 -4.917969 21.53125 -4.398438 21.761719 -3.992188 C 21.992188 -3.472656 22.222656 -3.007812 22.398438 -2.605469 C 22.6875 -2.082031 22.917969 -1.5625 23.09375 -1.214844 C 23.441406 -0.636719 23.84375 -0.347656 24.191406 -0.117188 C 24.65625 0.171875 25.117188 0.289062 25.695312 0.230469 C 26.160156 0.171875 26.621094 0.117188 27.203125 0.117188 C 27.78125 0.117188 28.300781 0.117188 28.765625 0.117188 C 29.457031 0.117188 29.921875 -0.117188 30.210938 -0.40625 C 30.441406 -0.695312 30.441406 -1.101562 30.210938 -1.851562 C 30.039062 -2.257812 29.921875 -2.71875 29.574219 -3.300781 C 29.285156 -3.878906 29.113281 -4.398438 28.878906 -4.804688 C 28.589844 -5.382812 28.183594 -5.789062 27.953125 -6.191406 C 27.605469 -6.769531 27.546875 -7.351562 27.316406 -7.699219 C 27.027344 -8.21875 26.679688 -8.566406 26.390625 -9.085938 C 26.160156 -9.550781 25.929688 -10.011719 25.695312 -10.476562 C 25.40625 -10.9375 25.292969 -11.460938 25.058594 -11.921875 C 24.828125 -12.386719 24.480469 -12.789062 24.25 -13.253906 C 23.960938 -13.714844 23.671875 -14.121094 23.382812 -14.585938 C 23.148438 -15.046875 22.859375 -15.511719 22.570312 -15.972656 C 22.339844 -16.4375 22.167969 -16.957031 21.933594 -17.421875 C 21.703125 -17.882812 21.472656 -18.347656 21.242188 -18.808594 C 20.949219 -19.273438 20.605469 -19.734375 20.371094 -20.140625 C 19.96875 -20.949219 19.734375 -20.777344 19.675781 -21.585938 C 19.621094 -22.398438 19.96875 -22.222656 20.429688 -22.976562 C 20.71875 -23.382812 20.949219 -23.960938 21.296875 -24.367188 C 21.585938 -24.65625 21.875 -25.058594 22.222656 -25.523438 C 22.511719 -25.871094 22.976562 -26.21875 23.265625 -26.621094 C 23.554688 -27.027344 23.902344 -27.375 24.191406 -27.839844 C 24.480469 -28.183594 24.769531 -28.648438 25.058594 -29.054688 C 25.347656 -29.457031 25.582031 -29.921875 25.871094 -30.328125 C 26.160156 -30.789062 26.566406 -31.078125 26.796875 -31.484375 C 27.144531 -31.945312 27.375 -32.351562 27.664062 -32.757812 C 27.953125 -33.21875 28.183594 -33.683594 28.417969 -34.03125 C 28.820312 -34.550781 28.9375 -35.074219 28.820312 -35.476562 C 28.707031 -35.941406 28.417969 -36.289062 27.722656 -36.460938 C 27.316406 -36.578125 26.796875 -36.578125 26.160156 -36.578125 C 25.464844 -36.519531 25.003906 -36.636719 24.539062 -36.578125 C 23.84375 -36.578125 23.441406 -36.402344 23.035156 -36.230469 C 22.628906 -36.054688 22.222656 -35.824219 21.761719 -35.304688 C 21.414062 -34.957031 21.183594 -34.492188 20.894531 -34.089844 C 20.546875 -33.742188 20.140625 -33.394531 19.851562 -32.988281 C 19.5625 -32.640625 19.332031 -32.179688 19.042969 -31.773438 C 18.75 -31.367188 18.460938 -30.964844 18.113281 -30.617188 C 17.769531 -30.152344 17.363281 -29.804688 17.015625 -29.402344 C 16.667969 -28.996094 16.320312 -28.53125 15.972656 -28.128906 C 15.625 -27.722656 15.277344 -27.316406 14.933594 -26.910156 C 14.527344 -26.507812 14.0625 -26.160156 13.714844 -25.753906 C 13.371094 -25.347656 13.023438 -24.945312 12.675781 -24.539062 C 12.328125 -24.132812 11.980469 -23.671875 11.574219 -23.265625 C 11.34375 -23.035156 11.054688 -23.148438 11.054688 -23.496094 C 10.996094 -23.960938 10.765625 -24.480469 10.765625 -25.117188 Z M 10.765625 -25.117188 "/></g></g></g><g fill="#000000" fill-opacity="1"><g transform="translate(288.615129, 337.383919)"><g><path d="M 4.28125 -29.457031 C 4.28125 -28.9375 4.226562 -28.417969 4.226562 -27.839844 C 4.226562 -27.316406 4.226562 -26.738281 4.226562 -26.21875 C 4.226562 -25.695312 4.226562 -25.117188 4.226562 -24.597656 C 4.226562 -24.078125 4.226562 -23.496094 4.226562 -22.976562 C 4.226562 -22.457031 4.226562 -21.875 4.226562 -21.355469 C 4.226562 -20.835938 4.167969 -20.257812 4.226562 -19.734375 C 4.226562 -19.214844 4.28125 -18.636719 4.28125 -18.113281 C 4.28125 -17.59375 4.226562 -17.015625 4.226562 -16.496094 C 4.226562 -15.972656 4.28125 -15.394531 4.28125 -14.933594 C 4.28125 -14.351562 4.339844 -13.773438 4.339844 -13.3125 C 4.339844 -12.675781 4.339844 -12.097656 4.339844 -11.691406 C 4.339844 -11.171875 4.339844 -10.707031 4.339844 -10.1875 C 4.398438 -9.664062 4.457031 -9.203125 4.515625 -8.679688 C 4.570312 -8.21875 4.746094 -7.699219 4.863281 -7.234375 C 4.976562 -6.769531 5.152344 -6.308594 5.382812 -5.84375 C 5.554688 -5.382812 5.730469 -4.863281 5.960938 -4.457031 C 6.25 -4.050781 6.425781 -3.53125 6.769531 -3.183594 C 7.0625 -2.777344 7.523438 -2.488281 7.929688 -2.140625 C 8.277344 -1.851562 8.679688 -1.503906 9.144531 -1.273438 C 9.550781 -0.984375 9.953125 -0.753906 10.476562 -0.519531 C 10.9375 -0.347656 11.402344 -0.117188 11.921875 0.0585938 C 12.386719 0.230469 12.90625 0.289062 13.425781 0.40625 C 13.890625 0.578125 14.410156 0.753906 14.933594 0.808594 C 15.394531 0.867188 15.972656 0.925781 16.4375 0.984375 C 16.957031 0.984375 17.476562 0.925781 18 0.867188 C 18.519531 0.867188 19.042969 0.808594 19.5625 0.753906 C 20.082031 0.636719 20.546875 0.464844 21.066406 0.347656 C 21.585938 0.171875 22.050781 0 22.511719 -0.171875 C 23.035156 -0.40625 23.441406 -0.695312 23.902344 -0.984375 C 24.308594 -1.214844 24.769531 -1.445312 25.175781 -1.792969 C 25.582031 -2.082031 25.929688 -2.546875 26.277344 -2.894531 C 26.621094 -3.300781 27.027344 -3.589844 27.316406 -4.050781 C 27.605469 -4.457031 27.78125 -4.976562 28.011719 -5.441406 C 28.242188 -5.902344 28.417969 -6.367188 28.589844 -6.828125 C 28.765625 -7.351562 28.9375 -7.8125 29.054688 -8.335938 C 29.167969 -8.855469 29.34375 -9.316406 29.402344 -9.839844 C 29.457031 -10.359375 29.402344 -10.878906 29.402344 -11.402344 C 29.402344 -11.980469 29.457031 -12.5 29.457031 -12.964844 C 29.457031 -13.542969 29.457031 -14.0625 29.457031 -14.585938 C 29.457031 -15.105469 29.402344 -15.625 29.402344 -16.089844 C 29.402344 -16.667969 29.457031 -17.1875 29.457031 -17.652344 C 29.457031 -18.230469 29.285156 -18.75 29.285156 -19.214844 C 29.34375 -19.792969 29.515625 -20.3125 29.515625 -20.777344 C 29.515625 -21.355469 29.402344 -21.875 29.402344 -22.339844 C 29.402344 -22.859375 29.574219 -23.382812 29.574219 -23.902344 C 29.574219 -24.421875 29.515625 -24.945312 29.515625 -25.464844 C 29.515625 -25.984375 29.515625 -26.449219 29.515625 -26.96875 C 29.515625 -27.492188 29.457031 -28.011719 29.457031 -28.53125 C 29.457031 -29.054688 29.457031 -29.574219 29.457031 -30.09375 C 29.457031 -30.617188 29.457031 -31.136719 29.457031 -31.714844 C 29.457031 -32.121094 29.515625 -32.699219 29.574219 -33.277344 C 29.574219 -33.855469 29.402344 -34.4375 29.34375 -34.839844 C 29.167969 -35.535156 28.9375 -36 28.476562 -36.230469 C 28.011719 -36.519531 27.433594 -36.578125 26.855469 -36.578125 C 26.277344 -36.636719 25.695312 -36.691406 25.117188 -36.636719 C 24.367188 -36.636719 23.730469 -36.636719 23.265625 -36.460938 C 22.628906 -36.230469 22.339844 -35.765625 22.222656 -34.898438 C 22.222656 -34.492188 22.167969 -33.972656 22.167969 -33.453125 C 22.222656 -32.988281 22.339844 -32.46875 22.339844 -32.003906 C 22.398438 -31.484375 22.457031 -30.964844 22.511719 -30.558594 C 22.511719 -30.039062 22.457031 -29.515625 22.457031 -28.996094 C 22.457031 -28.53125 22.570312 -28.011719 22.570312 -27.492188 C 22.570312 -26.96875 22.6875 -26.507812 22.6875 -25.984375 C 22.746094 -25.464844 22.628906 -24.945312 22.628906 -24.480469 C 22.6875 -23.960938 22.6875 -23.441406 22.6875 -22.917969 C 22.746094 -22.398438 22.804688 -21.933594 22.804688 -21.414062 C 22.804688 -20.894531 22.804688 -20.371094 22.859375 -19.910156 C 22.859375 -19.386719 22.804688 -18.867188 22.804688 -18.347656 C 22.804688 -17.824219 22.804688 -17.363281 22.859375 -16.839844 C 22.859375 -16.320312 22.976562 -15.800781 22.976562 -15.335938 C 22.976562 -14.816406 23.035156 -14.296875 23.035156 -13.773438 C 23.035156 -13.3125 22.976562 -12.789062 22.976562 -12.269531 C 22.976562 -11.691406 22.917969 -11.113281 22.859375 -10.589844 C 22.746094 -10.011719 22.628906 -9.492188 22.398438 -8.96875 C 22.222656 -8.449219 21.992188 -7.871094 21.703125 -7.464844 C 21.355469 -7.003906 20.894531 -6.65625 20.371094 -6.367188 C 19.96875 -6.136719 19.445312 -5.84375 18.867188 -5.671875 C 18.347656 -5.554688 17.769531 -5.730469 17.1875 -5.730469 C 16.667969 -5.730469 16.207031 -5.789062 15.742188 -5.84375 C 15.222656 -5.960938 14.757812 -6.078125 14.351562 -6.308594 C 13.949219 -6.539062 13.601562 -6.886719 13.253906 -7.234375 C 12.90625 -7.523438 12.5 -7.8125 12.210938 -8.277344 C 11.980469 -8.679688 11.75 -9.085938 11.574219 -9.550781 C 11.402344 -10.011719 11.226562 -10.535156 11.171875 -10.996094 C 11.054688 -11.460938 11.054688 -11.980469 11.054688 -12.441406 C 11.054688 -12.964844 11.054688 -13.484375 11.054688 -14.003906 C 10.996094 -14.46875 11.171875 -14.988281 11.171875 -15.511719 C 11.171875 -15.972656 11.113281 -16.496094 11.113281 -17.015625 C 11.113281 -17.476562 11.226562 -18 11.226562 -18.519531 C 11.226562 -19.042969 11.054688 -19.503906 11.054688 -20.023438 C 11.054688 -20.546875 11.054688 -21.007812 11.054688 -21.53125 C 11.054688 -22.050781 11.226562 -22.511719 11.226562 -23.035156 C 11.226562 -23.554688 11.171875 -24.019531 11.171875 -24.539062 C 11.171875 -25.058594 11.113281 -25.582031 11.113281 -26.042969 C 11.113281 -26.566406 11.171875 -27.144531 11.171875 -27.722656 C 11.171875 -28.242188 11.226562 -28.820312 11.171875 -29.402344 C 11.171875 -29.921875 11.054688 -30.5 11.054688 -31.078125 C 11.054688 -31.65625 11.226562 -32.179688 11.226562 -32.757812 C 11.226562 -33.335938 11.113281 -33.855469 11.113281 -34.378906 C 11.113281 -35.074219 11.054688 -35.59375 10.878906 -35.882812 C 10.589844 -36.347656 10.128906 -36.519531 9.550781 -36.578125 C 9.144531 -36.636719 8.625 -36.578125 7.988281 -36.578125 C 7.464844 -36.578125 6.886719 -36.578125 6.425781 -36.578125 C 5.84375 -36.578125 5.324219 -36.578125 4.976562 -36.347656 C 4.628906 -36.113281 4.457031 -35.710938 4.339844 -35.015625 C 4.28125 -34.667969 4.226562 -34.203125 4.226562 -33.683594 C 4.226562 -33.277344 4.226562 -32.816406 4.226562 -32.351562 C 4.28125 -31.832031 4.226562 -31.3125 4.226562 -31.019531 C 4.226562 -30.617188 4.28125 -30.09375 4.28125 -29.457031 Z M 4.28125 -29.457031 "/></g></g></g><g fill="#000000" fill-opacity="1"><g transform="translate(322.352221, 337.383919)"><g><path d="M 12.847656 -16.4375 C 12.675781 -16.957031 12.5 -17.535156 12.386719 -18.113281 C 12.210938 -18.695312 12.097656 -19.273438 11.980469 -19.792969 C 11.804688 -20.371094 11.691406 -20.949219 11.515625 -21.472656 C 11.402344 -21.992188 11.226562 -22.511719 11.113281 -23.035156 C 10.996094 -23.554688 10.9375 -24.078125 10.824219 -24.65625 C 10.707031 -25.175781 10.535156 -25.695312 10.417969 -26.21875 C 10.300781 -26.738281 10.300781 -27.316406 10.1875 -27.839844 C 10.070312 -28.359375 9.78125 -28.878906 9.664062 -29.402344 C 9.550781 -29.921875 9.492188 -30.5 9.375 -31.019531 C 9.261719 -31.542969 9.085938 -32.0625 8.96875 -32.582031 C 8.796875 -33.105469 8.738281 -33.625 8.566406 -34.148438 C 8.449219 -34.667969 8.21875 -35.1875 8.101562 -35.710938 C 7.929688 -36.230469 7.464844 -36.347656 6.886719 -36.402344 C 6.425781 -36.402344 5.84375 -36.402344 5.382812 -36.519531 C 4.863281 -36.636719 4.398438 -36.578125 3.992188 -36.578125 C 3.472656 -36.519531 3.007812 -36.402344 2.664062 -36.171875 C 2.316406 -35.882812 2.140625 -35.476562 2.082031 -34.957031 C 2.027344 -34.492188 2.140625 -33.855469 2.316406 -33.164062 C 2.429688 -32.46875 2.664062 -31.773438 2.777344 -31.367188 C 2.894531 -30.847656 3.007812 -30.328125 3.125 -29.804688 C 3.300781 -29.285156 3.414062 -28.765625 3.53125 -28.242188 C 3.644531 -27.78125 3.820312 -27.257812 3.933594 -26.738281 C 4.050781 -26.21875 4.226562 -25.695312 4.339844 -25.175781 C 4.457031 -24.710938 4.515625 -24.132812 4.628906 -23.671875 C 4.804688 -23.148438 4.746094 -22.570312 4.917969 -22.050781 C 5.035156 -21.585938 5.265625 -21.066406 5.382812 -20.546875 C 5.5 -20.023438 5.613281 -19.503906 5.789062 -19.042969 C 5.902344 -18.519531 6.019531 -18 6.136719 -17.476562 C 6.308594 -16.957031 6.425781 -16.4375 6.539062 -15.914062 C 6.65625 -15.453125 6.828125 -14.933594 6.945312 -14.410156 C 7.117188 -13.890625 7.117188 -13.371094 7.292969 -12.847656 C 7.40625 -12.328125 7.523438 -11.804688 7.640625 -11.285156 C 7.753906 -10.824219 7.929688 -10.300781 8.042969 -9.78125 C 8.21875 -9.261719 8.277344 -8.738281 8.449219 -8.21875 C 8.566406 -7.753906 8.738281 -7.234375 8.855469 -6.714844 C 9.027344 -6.191406 9.144531 -5.671875 9.261719 -5.152344 C 9.375 -4.6875 9.605469 -4.167969 9.722656 -3.644531 C 9.839844 -3.125 9.898438 -2.605469 10.011719 -2.082031 C 10.1875 -1.5625 10.476562 -1.15625 10.707031 -0.867188 C 11.054688 -0.519531 11.34375 -0.171875 11.921875 -0.0585938 C 12.328125 0.0585938 12.789062 -0.0585938 13.371094 -0.0585938 C 13.890625 -0.0585938 14.296875 -0.117188 14.699219 -0.171875 C 15.222656 -0.289062 15.625 -0.464844 15.914062 -0.753906 C 16.261719 -1.042969 16.550781 -1.390625 16.726562 -1.851562 C 16.898438 -2.371094 17.015625 -2.894531 17.1875 -3.414062 C 17.363281 -3.933594 17.59375 -4.457031 17.769531 -4.976562 C 17.882812 -5.5 18.113281 -5.960938 18.230469 -6.480469 C 18.40625 -7.003906 18.519531 -7.582031 18.636719 -8.101562 C 18.808594 -8.625 18.984375 -9.144531 19.15625 -9.664062 C 19.273438 -10.1875 19.273438 -10.765625 19.445312 -11.285156 C 19.5625 -11.804688 19.910156 -12.269531 20.082031 -12.789062 C 20.199219 -13.3125 20.199219 -13.832031 20.371094 -14.351562 C 20.546875 -14.933594 20.835938 -15.394531 21.007812 -15.914062 C 21.125 -16.320312 21.242188 -16.726562 21.472656 -17.1875 C 21.644531 -17.59375 21.820312 -18 22.050781 -18.519531 C 22.222656 -18.867188 22.398438 -19.332031 22.628906 -19.851562 C 22.746094 -19.273438 22.917969 -18.75 23.035156 -18.230469 C 23.148438 -17.652344 23.265625 -17.132812 23.382812 -16.609375 C 23.554688 -16.03125 23.613281 -15.511719 23.730469 -14.988281 C 23.902344 -14.46875 24.191406 -13.949219 24.308594 -13.425781 C 24.421875 -12.90625 24.421875 -12.328125 24.539062 -11.804688 C 24.710938 -11.285156 24.945312 -10.765625 25.058594 -10.242188 C 25.175781 -9.722656 25.234375 -9.144531 25.40625 -8.625 C 25.523438 -8.160156 25.582031 -7.640625 25.695312 -7.175781 C 25.8125 -6.714844 25.984375 -6.25 26.101562 -5.730469 C 26.21875 -5.265625 26.332031 -4.804688 26.449219 -4.339844 C 26.566406 -3.820312 26.796875 -3.355469 26.96875 -2.894531 C 27.144531 -2.429688 27.375 -2.027344 27.546875 -1.5625 C 27.78125 -1.101562 27.894531 -0.695312 28.242188 -0.464844 C 28.476562 -0.230469 28.878906 -0.171875 29.457031 -0.0585938 C 29.804688 -0.0585938 30.269531 -0.117188 30.789062 -0.117188 C 31.714844 -0.117188 32.238281 -0.0585938 32.640625 -0.171875 C 33.21875 -0.464844 33.394531 -0.867188 33.914062 -1.503906 C 34.320312 -1.96875 34.320312 -2.777344 34.492188 -3.472656 C 34.667969 -3.992188 34.78125 -4.515625 34.957031 -5.035156 C 35.074219 -5.554688 35.304688 -6.019531 35.476562 -6.539062 C 35.59375 -7.0625 35.710938 -7.582031 35.882812 -8.101562 C 36 -8.625 36.054688 -9.144531 36.230469 -9.664062 C 36.347656 -10.1875 36.402344 -10.765625 36.519531 -11.285156 C 36.691406 -11.804688 36.925781 -12.269531 37.039062 -12.789062 C 37.214844 -13.3125 37.328125 -13.832031 37.445312 -14.351562 C 37.617188 -14.875 37.792969 -15.394531 37.910156 -15.914062 C 38.082031 -16.4375 38.082031 -16.957031 38.253906 -17.476562 C 38.371094 -18 38.601562 -18.519531 38.71875 -19.042969 C 38.890625 -19.5625 38.949219 -20.082031 39.066406 -20.605469 C 39.238281 -21.125 39.585938 -21.585938 39.703125 -22.109375 C 39.875 -22.628906 39.992188 -23.148438 40.109375 -23.671875 C 40.28125 -24.191406 40.339844 -24.710938 40.453125 -25.234375 C 40.628906 -25.695312 40.800781 -26.21875 40.976562 -26.796875 C 41.089844 -27.316406 41.089844 -27.953125 41.207031 -28.53125 C 41.382812 -29.054688 41.4375 -29.574219 41.613281 -30.152344 C 41.726562 -30.730469 41.84375 -31.253906 41.960938 -31.832031 C 42.074219 -32.351562 42.191406 -32.929688 42.308594 -33.453125 C 42.421875 -34.089844 42.539062 -34.609375 42.597656 -35.074219 C 42.710938 -35.765625 42.769531 -36.230469 42.480469 -36.402344 C 42.191406 -36.636719 41.726562 -36.578125 41.089844 -36.578125 C 40.6875 -36.578125 40.222656 -36.691406 39.703125 -36.691406 C 39.125 -36.691406 38.71875 -36.460938 38.3125 -36.460938 C 37.734375 -36.460938 37.386719 -36.347656 37.097656 -36.113281 C 36.867188 -35.824219 36.578125 -35.535156 36.402344 -34.898438 C 36.289062 -34.492188 36.230469 -33.972656 36.113281 -33.453125 C 36 -32.988281 35.941406 -32.527344 35.824219 -32.003906 C 35.710938 -31.542969 35.535156 -31.078125 35.417969 -30.558594 C 35.304688 -30.09375 35.128906 -29.632812 35.074219 -29.113281 C 34.957031 -28.648438 34.898438 -28.128906 34.839844 -27.664062 C 34.726562 -27.203125 34.378906 -26.738281 34.261719 -26.277344 C 34.148438 -25.8125 34.148438 -25.292969 34.03125 -24.828125 C 33.914062 -24.308594 33.683594 -23.84375 33.625 -23.382812 C 33.453125 -22.859375 33.335938 -22.339844 33.21875 -21.820312 C 33.105469 -21.355469 33.046875 -20.777344 32.875 -20.257812 C 32.757812 -19.734375 32.582031 -19.273438 32.46875 -18.75 C 32.292969 -18.230469 32.121094 -17.710938 31.945312 -17.1875 C 31.832031 -16.667969 31.773438 -16.148438 31.65625 -15.625 C 31.425781 -15.105469 31.078125 -14.527344 30.847656 -14.585938 C 30.675781 -14.585938 30.441406 -14.875 30.152344 -15.683594 C 30.039062 -16.207031 29.980469 -16.726562 29.863281 -17.246094 C 29.691406 -17.769531 29.574219 -18.289062 29.457031 -18.808594 C 29.285156 -19.332031 29.167969 -19.851562 29.054688 -20.429688 C 28.878906 -20.894531 28.707031 -21.414062 28.589844 -21.933594 C 28.417969 -22.457031 28.417969 -23.035156 28.242188 -23.554688 C 28.128906 -24.078125 27.78125 -24.539062 27.664062 -25.058594 C 27.492188 -25.582031 27.433594 -26.101562 27.257812 -26.621094 C 27.144531 -27.144531 26.96875 -27.664062 26.855469 -28.183594 C 26.679688 -28.707031 26.679688 -29.226562 26.507812 -29.746094 C 26.390625 -30.269531 26.21875 -30.789062 26.042969 -31.3125 C 25.929688 -31.832031 25.753906 -32.351562 25.640625 -32.816406 C 25.523438 -33.335938 25.523438 -33.855469 25.464844 -34.261719 C 25.40625 -34.839844 25.292969 -35.246094 25.117188 -35.652344 C 24.886719 -36 24.597656 -36.230469 23.960938 -36.402344 C 23.613281 -36.460938 23.148438 -36.636719 22.570312 -36.636719 C 21.820312 -36.636719 21.296875 -36.578125 20.894531 -36.402344 C 20.371094 -36.289062 20.082031 -35.882812 19.792969 -35.246094 C 19.5625 -34.839844 19.273438 -34.378906 19.097656 -33.683594 C 18.925781 -33.21875 18.75 -32.699219 18.578125 -32.0625 C 18.460938 -31.542969 18.347656 -31.019531 18.230469 -30.5 C 18.058594 -29.980469 18.058594 -29.402344 17.882812 -28.878906 C 17.769531 -28.359375 17.535156 -27.894531 17.363281 -27.375 C 17.246094 -26.855469 17.015625 -26.332031 16.839844 -25.8125 C 16.667969 -25.292969 16.550781 -24.769531 16.4375 -24.25 C 16.261719 -23.730469 16.148438 -23.207031 15.972656 -22.6875 C 15.800781 -22.167969 15.742188 -21.585938 15.625 -21.066406 C 15.453125 -20.546875 15.222656 -20.082031 15.105469 -19.5625 C 14.933594 -19.042969 14.875 -18.460938 14.757812 -17.941406 C 14.585938 -17.421875 14.351562 -16.957031 14.238281 -16.4375 C 13.195312 -15.453125 13.425781 -15.742188 12.847656 -16.4375 Z M 12.847656 -16.4375 "/></g></g></g></svg>